<svg width="257" height="60" viewBox="0 0 257 60" fill="none" xmlns="http://www.w3.org/2000/svg">
<g clip-path="url(#clip0_201_38)">
<rect width="257" height="60" rx="4" fill="white" fill-opacity="0.29"/>
<path d="M25.5 10.8333C15.1687 10.8333 6.75 19.4392 6.75 30C6.75 40.5608 15.1687 49.1667 25.5 49.1667C35.8312 49.1667 44.25 40.5608 44.25 30C44.25 19.4392 35.8312 10.8333 25.5 10.8333ZM23.1375 18.6725C23.7 18.5383 25.0875 18.845 26.2312 19.3433C27.375 19.8608 28.8 20.915 29.3812 21.7008C29.9812 22.4867 29.9625 23.0042 29.3812 22.87C28.7812 22.7167 27.9 22.6017 27.4312 22.6208C26.9625 22.6208 26.175 22.2183 25.6875 21.7008C25.2 21.1833 24.1875 20.34 23.4562 19.8417C22.725 19.3433 22.575 18.8067 23.1375 18.6725ZM12.2437 23.4067H11.9812C13.0875 21.03 14.775 18.9983 16.875 17.4842C16.7437 18.1358 16.575 18.7492 16.3875 19.075C16.1062 19.5733 15.9375 20.3017 15.975 20.685C16.0312 21.0683 16.6875 21.6433 17.4375 21.95C18.1875 22.2567 18.6 22.7358 18.3375 23.0042C18.0937 23.2725 17.0437 23.4642 16.0125 23.4067C14.9812 23.3683 13.2937 23.3683 12.225 23.4067H12.2437ZM28.3875 38.51C28.1437 38.5483 27.7312 38.1075 27.4687 37.5517L27.4125 37.36L27.3562 37.1683C28.1437 37.2067 28.8 37.5133 28.8187 37.8392C28.8187 38.1842 28.65 38.4717 28.4062 38.51H28.3875ZM30.5062 33.5075C29.9812 34.8108 28.9687 35.8842 28.275 35.865C27.5812 35.865 26.4937 35.5583 25.875 35.1942C25.2562 34.8492 24.6 34.3317 24.4125 34.0442C24.225 33.7567 23.4562 33.335 22.7062 33.1242C21.9562 32.9133 20.8125 33.0858 20.2125 33.5267C19.6125 33.9675 18.6937 34.4467 18.1687 34.5808C17.6437 34.7342 16.9125 34.255 16.5187 33.5458C16.125 32.8367 15.7125 31.495 15.5812 30.575C15.45 29.655 15.975 28.5433 16.7437 28.1408C17.5125 27.7383 18.6187 26.78 19.2375 26.0517C19.8375 25.3233 20.6812 24.4033 21.1125 24.0008C21.5437 23.5983 22.5 23.3683 23.2312 23.5025C23.9625 23.6367 24.5062 24.1542 24.4687 24.6525C24.4125 25.17 24.7312 25.7258 25.1812 25.9175C25.6312 26.1092 26.2875 25.63 26.6437 24.8633C27 24.0967 27.5625 24.135 27.8812 24.9208C28.2 25.7067 29.1562 27.4508 29.9812 28.7542C30.825 30.0575 31.0687 32.2042 30.525 33.5267L30.5062 33.5075ZM37.425 37.8775C36.9937 38.5292 36.0375 39.4108 35.2875 39.8325C34.5375 40.2542 33.7125 40.4842 33.45 40.3692C33.1875 40.235 33.3375 39.6792 33.8062 39.1425C34.275 38.5867 35.1375 37.8967 35.7187 37.59C36.3 37.2833 36.8625 36.6508 36.9562 36.1717C37.05 35.6925 37.3687 35.6158 37.6687 35.9992C37.9687 36.3825 37.875 37.2258 37.4437 37.8775H37.425Z" fill="black"/>
<path d="M69.4205 19.7273V43H65.6705L54.7045 27.1477H54.5114V43H50.2955V19.7273H54.0682L65.0227 35.5909H65.2273V19.7273H69.4205ZM78.8551 43.3523C77.7491 43.3523 76.7528 43.1553 75.8665 42.7614C74.9877 42.3598 74.2907 41.7689 73.7756 40.9886C73.268 40.2083 73.0142 39.2462 73.0142 38.1023C73.0142 37.1174 73.196 36.303 73.5597 35.6591C73.9233 35.0152 74.4195 34.5 75.0483 34.1136C75.6771 33.7273 76.3854 33.4356 77.1733 33.2386C77.9688 33.0341 78.7907 32.8864 79.6392 32.7955C80.6619 32.6894 81.4915 32.5947 82.1278 32.5114C82.7642 32.4205 83.2263 32.2841 83.5142 32.1023C83.8097 31.9129 83.9574 31.6212 83.9574 31.2273V31.1591C83.9574 30.303 83.7036 29.6402 83.196 29.1705C82.6884 28.7008 81.9574 28.4659 81.0028 28.4659C79.9953 28.4659 79.196 28.6856 78.6051 29.125C78.0218 29.5644 77.6278 30.0833 77.4233 30.6818L73.5824 30.1364C73.8854 29.0758 74.3854 28.1894 75.0824 27.4773C75.7794 26.7576 76.6316 26.2197 77.6392 25.8636C78.6468 25.5 79.7604 25.3182 80.9801 25.3182C81.821 25.3182 82.6581 25.4167 83.4915 25.6136C84.3248 25.8106 85.0862 26.1364 85.7756 26.5909C86.465 27.0379 87.018 27.6477 87.4347 28.4205C87.8589 29.1932 88.071 30.1591 88.071 31.3182V43H84.1165V40.6023H83.9801C83.7301 41.0871 83.3778 41.5417 82.9233 41.9659C82.4763 42.3826 81.9119 42.7197 81.2301 42.9773C80.5559 43.2273 79.7642 43.3523 78.8551 43.3523ZM79.9233 40.3295C80.7491 40.3295 81.465 40.1667 82.071 39.8409C82.6771 39.5076 83.143 39.0682 83.4688 38.5227C83.8021 37.9773 83.9688 37.3826 83.9688 36.7386V34.6818C83.84 34.7879 83.6203 34.8864 83.3097 34.9773C83.0066 35.0682 82.6657 35.1477 82.2869 35.2159C81.9081 35.2841 81.5331 35.3447 81.1619 35.3977C80.7907 35.4508 80.4688 35.4962 80.196 35.5341C79.5824 35.6174 79.0331 35.7538 78.5483 35.9432C78.0634 36.1326 77.6809 36.3977 77.4006 36.7386C77.1203 37.072 76.9801 37.5038 76.9801 38.0341C76.9801 38.7917 77.2566 39.3636 77.8097 39.75C78.3627 40.1364 79.0672 40.3295 79.9233 40.3295ZM160.091 27.5795H155.841C155.72 26.8826 155.496 26.2652 155.17 25.7273C154.845 25.1818 154.439 24.7197 153.955 24.3409C153.47 23.9621 152.917 23.678 152.295 23.4886C151.682 23.2917 151.019 23.1932 150.307 23.1932C149.042 23.1932 147.92 23.5114 146.943 24.1477C145.966 24.7765 145.201 25.7008 144.648 26.9205C144.095 28.1326 143.818 29.6136 143.818 31.3636C143.818 33.1439 144.095 34.6439 144.648 35.8636C145.208 37.0758 145.973 37.9924 146.943 38.6136C147.92 39.2273 149.038 39.5341 150.295 39.5341C150.992 39.5341 151.644 39.4432 152.25 39.2614C152.864 39.072 153.413 38.7955 153.898 38.4318C154.39 38.0682 154.803 37.6212 155.136 37.0909C155.477 36.5606 155.712 35.9545 155.841 35.2727L160.091 35.2955C159.932 36.4015 159.587 37.4394 159.057 38.4091C158.534 39.3788 157.848 40.2348 157 40.9773C156.152 41.7121 155.159 42.2879 154.023 42.7045C152.886 43.1136 151.625 43.3182 150.239 43.3182C148.193 43.3182 146.367 42.8447 144.761 41.8977C143.155 40.9508 141.89 39.5833 140.966 37.7955C140.042 36.0076 139.58 33.8636 139.58 31.3636C139.58 28.8561 140.045 26.7121 140.977 24.9318C141.909 23.1439 143.178 21.7765 144.784 20.8295C146.39 19.8826 148.208 19.4091 150.239 19.4091C151.534 19.4091 152.739 19.5909 153.852 19.9545C154.966 20.3182 155.958 20.8523 156.83 21.5568C157.701 22.2538 158.417 23.1098 158.977 24.125C159.545 25.1326 159.917 26.2841 160.091 27.5795ZM174.895 35.6591V25.5455H179.009V43H175.02V39.8977H174.838C174.444 40.875 173.796 41.6742 172.895 42.2955C172.001 42.9167 170.899 43.2273 169.588 43.2273C168.444 43.2273 167.433 42.9735 166.554 42.4659C165.683 41.9508 165.001 41.2045 164.509 40.2273C164.016 39.2424 163.77 38.053 163.77 36.6591V25.5455H167.884V36.0227C167.884 37.1288 168.187 38.0076 168.793 38.6591C169.399 39.3106 170.194 39.6364 171.179 39.6364C171.785 39.6364 172.372 39.4886 172.94 39.1932C173.509 38.8977 173.974 38.4583 174.338 37.875C174.709 37.2841 174.895 36.5455 174.895 35.6591ZM187.352 19.7273V43H183.239V19.7273H187.352ZM200.298 25.5455V28.7273H190.264V25.5455H200.298ZM192.741 21.3636H196.855V37.75C196.855 38.303 196.938 38.7273 197.105 39.0227C197.279 39.3106 197.507 39.5076 197.787 39.6136C198.067 39.7197 198.378 39.7727 198.719 39.7727C198.976 39.7727 199.211 39.7538 199.423 39.7159C199.643 39.678 199.81 39.6439 199.923 39.6136L200.616 42.8295C200.397 42.9053 200.082 42.9886 199.673 43.0795C199.272 43.1705 198.779 43.2235 198.196 43.2386C197.166 43.2689 196.238 43.1136 195.412 42.7727C194.586 42.4242 193.931 41.8864 193.446 41.1591C192.969 40.4318 192.734 39.5227 192.741 38.4318V21.3636ZM214.864 35.6591V25.5455H218.977V43H214.989V39.8977H214.807C214.413 40.875 213.765 41.6742 212.864 42.2955C211.97 42.9167 210.867 43.2273 209.557 43.2273C208.413 43.2273 207.402 42.9735 206.523 42.4659C205.652 41.9508 204.97 41.2045 204.477 40.2273C203.985 39.2424 203.739 38.053 203.739 36.6591V25.5455H207.852V36.0227C207.852 37.1288 208.155 38.0076 208.761 38.6591C209.367 39.3106 210.163 39.6364 211.148 39.6364C211.754 39.6364 212.341 39.4886 212.909 39.1932C213.477 38.8977 213.943 38.4583 214.307 37.875C214.678 37.2841 214.864 36.5455 214.864 35.6591ZM223.207 43V25.5455H227.196V28.4545H227.378C227.696 27.447 228.241 26.6705 229.014 26.125C229.795 25.572 230.685 25.2955 231.685 25.2955C231.912 25.2955 232.166 25.3068 232.446 25.3295C232.734 25.3447 232.973 25.3712 233.162 25.4091V29.1932C232.988 29.1326 232.711 29.0795 232.332 29.0341C231.961 28.9811 231.601 28.9545 231.253 28.9545C230.503 28.9545 229.829 29.1174 229.23 29.4432C228.639 29.7614 228.173 30.2045 227.832 30.7727C227.491 31.3409 227.321 31.9962 227.321 32.7386V43H223.207ZM242.903 43.3409C241.153 43.3409 239.642 42.9773 238.369 42.25C237.104 41.5152 236.131 40.4773 235.449 39.1364C234.767 37.7879 234.426 36.2008 234.426 34.375C234.426 32.5795 234.767 31.0038 235.449 29.6477C236.138 28.2841 237.1 27.2235 238.335 26.4659C239.57 25.7008 241.021 25.3182 242.688 25.3182C243.763 25.3182 244.778 25.4924 245.733 25.8409C246.695 26.1818 247.544 26.7121 248.278 27.4318C249.021 28.1515 249.604 29.0682 250.028 30.1818C250.453 31.2879 250.665 32.6061 250.665 34.1364V35.3977H236.358V32.625H246.722C246.714 31.8371 246.544 31.1364 246.21 30.5227C245.877 29.9015 245.411 29.4129 244.812 29.0568C244.222 28.7008 243.532 28.5227 242.744 28.5227C241.903 28.5227 241.165 28.7273 240.528 29.1364C239.892 29.5379 239.396 30.0682 239.04 30.7273C238.691 31.3788 238.513 32.0947 238.506 32.875V35.2955C238.506 36.3106 238.691 37.1818 239.062 37.9091C239.434 38.6288 239.953 39.1818 240.619 39.5682C241.286 39.947 242.066 40.1364 242.96 40.1364C243.559 40.1364 244.1 40.053 244.585 39.8864C245.07 39.7121 245.491 39.4583 245.847 39.125C246.203 38.7917 246.472 38.3788 246.653 37.8864L250.494 38.3182C250.252 39.3333 249.79 40.2197 249.108 40.9773C248.434 41.7273 247.57 42.3106 246.517 42.7273C245.464 43.1364 244.259 43.3409 242.903 43.3409Z" fill="#432904"/>
<path d="M95.6619 43L89.0938 19.7273H93.6278L97.821 36.8295H98.0369L102.514 19.7273H106.639L111.128 36.8409H111.332L115.526 19.7273H120.06L113.491 43H109.332L104.673 26.6705H104.491L99.821 43H95.6619ZM128.747 43.3409C126.997 43.3409 125.486 42.9773 124.213 42.25C122.948 41.5152 121.974 40.4773 121.293 39.1364C120.611 37.7879 120.27 36.2008 120.27 34.375C120.27 32.5795 120.611 31.0038 121.293 29.6477C121.982 28.2841 122.944 27.2235 124.179 26.4659C125.414 25.7008 126.865 25.3182 128.531 25.3182C129.607 25.3182 130.622 25.4924 131.577 25.8409C132.539 26.1818 133.387 26.7121 134.122 27.4318C134.865 28.1515 135.448 29.0682 135.872 30.1818C136.296 31.2879 136.509 32.6061 136.509 34.1364V35.3977H122.202V32.625H132.565C132.558 31.8371 132.387 31.1364 132.054 30.5227C131.721 29.9015 131.255 29.4129 130.656 29.0568C130.065 28.7008 129.376 28.5227 128.588 28.5227C127.747 28.5227 127.009 28.7273 126.372 29.1364C125.736 29.5379 125.24 30.0682 124.884 30.7273C124.535 31.3788 124.357 32.0947 124.349 32.875V35.2955C124.349 36.3106 124.535 37.1818 124.906 37.9091C125.277 38.6288 125.796 39.1818 126.463 39.5682C127.13 39.947 127.91 40.1364 128.804 40.1364C129.402 40.1364 129.944 40.053 130.429 39.8864C130.914 39.7121 131.334 39.4583 131.69 39.125C132.046 38.7917 132.315 38.3788 132.497 37.8864L136.338 38.3182C136.096 39.3333 135.634 40.2197 134.952 40.9773C134.277 41.7273 133.414 42.3106 132.361 42.7273C131.308 43.1364 130.103 43.3409 128.747 43.3409Z" fill="#D77D00"/>
<path d="M61.2386 74.6591V64.5455H65.3523V82H61.3636V78.8977H61.1818C60.7879 79.875 60.1402 80.6742 59.2386 81.2955C58.3447 81.9167 57.2424 82.2273 55.9318 82.2273C54.7879 82.2273 53.7765 81.9735 52.8977 81.4659C52.0265 80.9508 51.3447 80.2045 50.8523 79.2273C50.3598 78.2424 50.1136 77.053 50.1136 75.6591V64.5455H54.2273V75.0227C54.2273 76.1288 54.5303 77.0076 55.1364 77.6591C55.7424 78.3106 56.5379 78.6364 57.5227 78.6364C58.1288 78.6364 58.7159 78.4886 59.2841 78.1932C59.8523 77.8977 60.3182 77.4583 60.6818 76.875C61.053 76.2841 61.2386 75.5455 61.2386 74.6591ZM69.5824 82V64.5455H73.571V67.4545H73.7528C74.071 66.447 74.6165 65.6705 75.3892 65.125C76.1695 64.572 77.0597 64.2955 78.0597 64.2955C78.2869 64.2955 78.5407 64.3068 78.821 64.3295C79.1089 64.3447 79.3475 64.3712 79.5369 64.4091V68.1932C79.3627 68.1326 79.0862 68.0795 78.7074 68.0341C78.3362 67.9811 77.9763 67.9545 77.6278 67.9545C76.8778 67.9545 76.2036 68.1174 75.6051 68.4432C75.0142 68.7614 74.5483 69.2045 74.2074 69.7727C73.8665 70.3409 73.696 70.9962 73.696 71.7386V82H69.5824ZM89.2784 82.3409C87.5284 82.3409 86.017 81.9773 84.7443 81.25C83.4792 80.5152 82.5057 79.4773 81.8239 78.1364C81.142 76.7879 80.8011 75.2008 80.8011 73.375C80.8011 71.5795 81.142 70.0038 81.8239 68.6477C82.5133 67.2841 83.4754 66.2235 84.7102 65.4659C85.9451 64.7008 87.3958 64.3182 89.0625 64.3182C90.1383 64.3182 91.1534 64.4924 92.108 64.8409C93.0701 65.1818 93.9186 65.7121 94.6534 66.4318C95.3958 67.1515 95.9792 68.0682 96.4034 69.1818C96.8277 70.2879 97.0398 71.6061 97.0398 73.1364V74.3977H82.733V71.625H93.0966C93.089 70.8371 92.9186 70.1364 92.5852 69.5227C92.2519 68.9015 91.786 68.4129 91.1875 68.0568C90.5966 67.7008 89.9072 67.5227 89.1193 67.5227C88.2784 67.5227 87.5398 67.7273 86.9034 68.1364C86.267 68.5379 85.7708 69.0682 85.4148 69.7273C85.0663 70.3788 84.8883 71.0947 84.8807 71.875V74.2955C84.8807 75.3106 85.0663 76.1818 85.4375 76.9091C85.8087 77.6288 86.3277 78.1818 86.9943 78.5682C87.661 78.947 88.4413 79.1364 89.3352 79.1364C89.9337 79.1364 90.4754 79.053 90.9602 78.8864C91.4451 78.7121 91.8655 78.4583 92.2216 78.125C92.5777 77.7917 92.8466 77.3788 93.0284 76.8864L96.8693 77.3182C96.6269 78.3333 96.1648 79.2197 95.483 79.9773C94.8087 80.7273 93.9451 81.3106 92.892 81.7273C91.839 82.1364 90.6345 82.3409 89.2784 82.3409Z" fill="black"/>
</g>
<rect x="0.5" y="0.5" width="256" height="59" rx="3.5" stroke="#FF383C"/>
<defs>
<clipPath id="clip0_201_38">
<rect width="257" height="60" rx="4" fill="white"/>
</clipPath>
</defs>
</svg>
